<!DOCTYPE svg PUBLIC "-//W3C//DTD SVG 1.1//EN" "http://www.w3.org/Graphics/SVG/1.1/DTD/svg11.dtd">

<!-- Uploaded to: SVG Repo, www.svgrepo.com, Transformed by: SVG Repo Mixer Tools -->
<svg width="800px" height="600px" viewBox="-6.24 -6.24 36.48 36.48" id="Layer_1" data-name="Layer 1" xmlns="http://www.w3.org/2000/svg" fill="#181818" stroke="#181818">

<g id="SVGRepo_bgCarrier" stroke-width="0"/>

<g id="SVGRepo_tracerCarrier" stroke-linecap="round" stroke-linejoin="round"/>

<g id="SVGRepo_iconCarrier">

<defs>

<style>.cls-1{fill:none;stroke:#181818;stroke-miterlimit:10;stroke-width:1.2;}</style>

</defs>

<rect class="cls-1" x="7.23" y="1.5" width="9.55" height="3.82"/>

<path class="cls-1" d="M5.32,9.61c1.11,0,1.11-.95,2.23-.95s1.11.95,2.23.95,1.11-.95,2.23-.95,1.11.95,2.22.95,1.12-.95,2.23-.95,1.11.95,2.22.95l1-.47L16.77,5.32H7.23L4.36,9.14Z"/>

<path class="cls-1" d="M18.68,9.14v10.5a2.86,2.86,0,0,1-2.86,2.86H8.18a2.86,2.86,0,0,1-2.86-2.86V9.14"/>

<rect class="cls-1" x="9.14" y="13.91" width="5.73" height="3.82" rx="1.91"/>

</g>

</svg>